<?xml version="1.0" encoding="UTF-8" standalone="no"?>
<!DOCTYPE svg PUBLIC "-//W3C//DTD SVG 1.1//EN" "http://www.w3.org/Graphics/SVG/1.1/DTD/svg11.dtd">
<svg width="100%" height="100%" viewBox="0 0 753 89" version="1.1" xmlns="http://www.w3.org/2000/svg" xmlns:xlink="http://www.w3.org/1999/xlink" xml:space="preserve" xmlns:serif="http://www.serif.com/" style="fill-rule:evenodd;clip-rule:evenodd;stroke-linejoin:round;stroke-miterlimit:2;">
    <g transform="matrix(1.61681,0,0,1,-28.4459,-2.51953)">
        <path d="M36.107,16.924C34.717,19.17 33.706,21.017 33.071,22.466C32.437,23.914 31.758,25.99 31.033,28.691C30.489,30.645 30.097,32.712 29.855,34.893C29.553,36.813 29.402,39.287 29.402,42.314C29.402,46.579 29.654,50.135 30.157,52.983C30.66,55.832 31.405,57.98 32.392,59.429C33.379,60.877 34.566,61.602 35.956,61.602C37.083,61.602 38.236,60.934 39.414,59.6C40.591,58.265 41.658,56.515 42.615,54.351C43.571,52.186 44.341,49.769 44.925,47.1C45.509,44.43 45.801,41.859 45.801,39.385C45.801,34.925 44.855,30.27 42.962,25.42C42.257,23.467 41.905,22.132 41.905,21.416C41.905,20.081 42.358,18.747 43.264,17.412C44.291,15.817 45.469,14.401 46.797,13.164C48.126,11.927 49.173,11.309 49.938,11.309C50.381,11.309 50.849,11.479 51.343,11.821C51.836,12.163 52.213,12.594 52.475,13.115C53.119,14.189 53.653,16.167 54.076,19.048C54.499,21.929 54.71,24.98 54.71,28.203C54.71,35.885 53.739,42.974 51.796,49.468C49.853,55.962 47.215,61.105 43.883,64.897C40.551,68.69 36.942,70.586 33.056,70.586C30.822,70.586 28.607,69.919 26.412,68.584C24.218,67.249 22.436,65.459 21.067,63.213C18.752,59.469 17.594,54.57 17.594,48.516C17.594,45 18.017,41.273 18.862,37.334C19.708,33.395 20.871,29.562 22.35,25.835C23.83,22.108 25.542,18.698 27.484,15.605C29.427,12.513 31.426,10.072 33.479,8.281C35.352,6.654 37.365,5.352 39.519,4.375C41.674,3.398 43.566,2.91 45.197,2.91C47.492,2.91 48.64,3.48 48.64,4.619C48.64,5.075 48.398,5.775 47.915,6.719C47.029,8.053 46.259,8.997 45.605,9.551C44.95,10.104 43.878,10.723 42.388,11.406C40.778,12.188 39.61,12.896 38.885,13.53C38.16,14.165 37.234,15.296 36.107,16.924Z" style="fill-rule:nonzero;"/>
        <path d="M67.183,55.107L67.062,56.084C67.062,56.637 67.022,57.435 66.941,58.477C66.861,60.072 66.75,61.374 66.609,62.383C66.468,63.392 66.257,64.23 65.975,64.897C65.693,65.565 65.31,66.273 64.827,67.021C63.357,69.202 61.877,70.293 60.388,70.293C59.18,70.293 58.289,69.577 57.715,68.145C57.141,66.712 56.854,64.401 56.854,61.211C56.854,58.672 57.03,55.539 57.383,51.812C57.735,48.084 58.163,44.74 58.666,41.777L58.908,40.508C58.908,40.313 58.968,39.906 59.089,39.287C59.834,34.86 60.518,31.58 61.143,29.448C61.767,27.316 62.522,25.599 63.408,24.297C64.193,23.288 65.079,22.783 66.065,22.783C67.495,22.783 68.36,24.183 68.662,26.982C68.944,26.592 69.216,26.136 69.478,25.615C70.062,24.476 70.515,23.719 70.837,23.345C71.159,22.97 71.532,22.783 71.954,22.783C73.686,22.783 74.552,25.55 74.552,31.084C74.552,34.111 74.35,37.041 73.948,39.873C73.545,42.705 73.036,45.016 72.422,46.807C71.808,48.597 71.199,49.492 70.595,49.492C69.931,49.492 69.599,47.458 69.599,43.389C69.599,41.24 69.523,39.556 69.372,38.335C69.221,37.114 68.985,36.162 68.662,35.479C68.058,37.301 67.666,41.468 67.485,47.979C67.344,51.755 67.243,54.131 67.183,55.107Z" style="fill-rule:nonzero;"/>
        <path d="M81.432,70.488C80.526,70.391 79.702,69.723 78.958,68.486C78.214,67.184 77.686,65.776 77.375,64.263C77.063,62.749 76.907,60.788 76.907,58.379C76.907,53.008 77.526,46.945 78.764,40.19C80.003,33.436 81.407,28.545 82.977,25.518C83.601,24.248 84.466,23.613 85.573,23.613C86.741,23.613 87.682,24.476 88.396,26.201C89.111,27.926 89.468,30.188 89.468,32.988C89.468,37.121 89.1,41.963 88.364,47.512C87.627,53.062 86.593,58.831 85.262,64.82C84.739,67.231 84.095,68.859 83.331,69.706C82.808,70.228 82.195,70.488 81.491,70.488L81.432,70.488ZM85.061,21.416C83.169,21.318 82.222,19.479 82.222,15.898C82.222,14.108 82.499,12.033 83.053,9.673C83.607,7.313 84.236,5.563 84.94,4.424C85.303,3.805 85.67,3.366 86.043,3.105C86.415,2.845 86.893,2.715 87.477,2.715C88.484,2.715 89.224,3.114 89.697,3.911C90.17,4.709 90.407,6.035 90.407,7.891C90.407,10.202 90.16,12.391 89.667,14.458C89.173,16.525 88.514,18.201 87.689,19.487C86.863,20.773 86.018,21.416 85.152,21.416L85.061,21.416Z" style="fill-rule:nonzero;"/>
        <path d="M114.144,46.221L114.144,46.416L114.023,46.221C113.902,46.286 113.741,46.318 113.54,46.318C113.158,46.383 112.674,46.416 112.09,46.416C111.064,46.416 110.55,46.107 110.55,45.488C110.55,45.163 110.681,44.772 110.943,44.316C111.708,42.917 112.367,41.077 112.921,38.799C113.475,36.52 113.782,34.453 113.842,32.598C113.842,32.142 113.862,31.735 113.902,31.377C113.923,31.247 113.938,31.133 113.948,31.035C113.958,30.938 113.963,30.856 113.963,30.791C113.963,30.335 113.772,30.107 113.389,30.107C112.604,30.107 111.396,31.475 109.765,34.209C108.738,35.967 107.772,38.05 106.866,40.459C105.96,42.868 105.255,45.277 104.752,47.686C104.248,50.094 103.997,52.259 103.997,54.18C103.997,56.068 104.289,57.012 104.873,57.012C105.436,57.012 106.856,55.482 109.131,52.422C110.158,50.99 111.829,48.923 114.144,46.221ZM112.604,56.621L111.788,57.598C111.728,57.695 111.632,57.826 111.502,57.988C111.371,58.151 111.205,58.363 111.003,58.623C107.52,63.018 104.787,66.11 102.804,67.9C100.821,69.691 99.094,70.586 97.625,70.586C95.994,70.586 94.68,69.626 93.683,67.705C92.687,65.785 92.188,63.213 92.188,59.99C92.188,55.986 92.888,51.844 94.287,47.563C95.687,43.283 97.534,39.352 99.829,35.771C102.124,32.191 104.641,29.318 107.379,27.153C110.117,24.989 112.765,23.906 115.322,23.906C117.839,23.906 119.756,24.606 121.075,26.006C122.394,27.406 123.053,29.505 123.053,32.305C123.053,34.648 122.479,37.546 121.332,40.996C122.157,41.094 122.761,41.509 123.144,42.241C123.526,42.974 123.718,44.121 123.718,45.684C123.718,48.223 123.395,51.763 122.751,56.304C122.107,60.845 121.322,65.036 120.396,68.877C119.268,73.727 117.657,77.943 115.564,81.523C113.973,84.225 112,86.545 109.644,88.481C107.289,90.418 105.265,91.387 103.574,91.387C102.165,91.387 100.906,90.475 99.799,88.652C98.692,86.829 98.138,84.779 98.138,82.5C98.138,80.97 98.38,79.383 98.863,77.739C99.346,76.095 99.97,74.687 100.735,73.516C102.306,70.944 104.611,68.503 107.651,66.191C108.215,65.736 108.648,65.508 108.95,65.508C109.07,65.508 109.181,65.589 109.282,65.752C109.383,65.915 109.433,66.094 109.433,66.289C109.433,66.517 109.312,66.956 109.07,67.607C108.466,69.268 107.933,71.392 107.47,73.979C107.007,76.567 106.775,78.805 106.775,80.693C106.775,82.907 106.987,84.014 107.409,84.014C107.631,84.014 107.908,83.615 108.24,82.817C108.573,82.02 108.87,81.117 109.131,80.107C110.843,73.076 111.938,66.565 112.416,60.574C112.479,59.695 112.541,58.378 112.604,56.621Z" style="fill-rule:nonzero;"/>
        <path d="M130.9,70.488C129.995,70.391 129.17,69.723 128.426,68.486C127.682,67.184 127.154,65.776 126.843,64.263C126.531,62.749 126.375,60.788 126.375,58.379C126.375,53.008 126.994,46.945 128.233,40.19C129.471,33.436 130.875,28.545 132.445,25.518C133.069,24.248 133.934,23.613 135.041,23.613C136.209,23.613 137.15,24.476 137.864,26.201C138.579,27.926 138.936,30.188 138.936,32.988C138.936,37.121 138.568,41.963 137.832,47.512C137.095,53.062 136.061,58.831 134.73,64.82C134.207,67.231 133.563,68.859 132.799,69.706C132.277,70.228 131.663,70.488 130.96,70.488L130.9,70.488ZM134.529,21.416C132.637,21.318 131.69,19.479 131.69,15.898C131.69,14.108 131.967,12.033 132.521,9.673C133.075,7.313 133.704,5.563 134.408,4.424C134.771,3.805 135.138,3.366 135.511,3.105C135.883,2.845 136.361,2.715 136.945,2.715C137.952,2.715 138.692,3.114 139.165,3.911C139.638,4.709 139.875,6.035 139.875,7.891C139.875,10.202 139.628,12.391 139.135,14.458C138.642,16.525 137.982,18.201 137.157,19.487C136.331,20.773 135.486,21.416 134.62,21.416L134.529,21.416Z" style="fill-rule:nonzero;"/>
        <path d="M154.873,44.255L156.693,40.827C158.534,37.531 159.993,35.075 161.069,33.461C162.145,31.846 163.11,30.68 163.965,29.963C164.82,29.245 165.69,28.887 166.575,28.887C168.003,28.887 169.009,29.505 169.592,30.742C170.176,31.979 170.468,34.128 170.468,37.188C170.468,38.457 170.387,40.329 170.226,42.803C169.984,46.09 169.864,49.183 169.864,52.08C169.864,55.335 169.964,57.972 170.166,59.99C170.307,61.227 170.518,62.464 170.8,63.701C171.001,64.873 171.102,65.671 171.102,66.094C171.102,66.615 170.981,67.021 170.739,67.314C170.115,68.193 169.29,68.958 168.263,69.609C167.236,70.26 166.37,70.586 165.666,70.586C164.518,70.586 163.476,69.951 162.54,68.682C161.604,67.412 160.879,65.654 160.366,63.408C159.852,61.162 159.595,58.623 159.595,55.791C159.595,53.903 159.716,51.673 159.958,49.102L159.837,48.906C158.971,50.469 158.272,51.706 157.738,52.617C157.205,53.529 156.706,54.391 156.243,55.205C153.988,59.372 152.076,63.132 150.505,66.484C149.901,67.786 149.348,68.926 148.844,69.902C148.099,71.107 147.254,71.709 146.307,71.709C145.019,71.709 143.972,70.928 143.167,69.365C142.361,67.803 141.959,65.785 141.959,63.311C141.959,61.781 142.069,59.909 142.291,57.695C142.512,55.482 142.809,53.114 143.182,50.591C143.554,48.068 143.997,45.472 144.51,42.803C145.024,40.133 145.583,37.594 146.187,35.186C147.113,31.182 148.24,28.057 149.569,25.811C150.475,24.346 151.573,23.613 152.861,23.613C154.956,23.613 156.003,25.811 156.003,30.205C156.003,33.428 155.586,38.046 154.753,44.059L154.873,44.255Z" style="fill-rule:nonzero;"/>
        <path d="M195.957,44.609L195.383,44.902C193.933,45.553 192.886,45.879 192.242,45.879C191.457,45.879 191.064,45.553 191.064,44.902C191.064,44.674 191.225,44.072 191.547,43.096C192.675,40.329 193.239,37.725 193.239,35.283C193.239,33.883 193.088,32.606 192.786,31.45C192.484,30.295 192.151,29.717 191.789,29.717C191.467,29.717 190.974,30.27 190.309,31.377C188.437,34.665 186.952,38.034 185.855,41.484C184.757,44.935 184.209,48.011 184.209,50.713C184.209,52.503 184.435,53.984 184.888,55.156C185.341,56.328 185.91,56.914 186.595,56.914C187.178,56.914 188.271,55.905 189.871,53.887C191.472,51.868 193.269,49.199 195.262,45.879L196.077,44.805L195.957,44.609ZM194.145,55.791L194.145,55.986L194.024,55.791C192.151,59.339 190.435,62.244 188.875,64.507C187.314,66.769 185.875,68.47 184.556,69.609C183.237,70.749 182.024,71.318 180.917,71.318C178.662,71.318 176.8,70.098 175.33,67.656C173.86,65.215 173.125,62.122 173.125,58.379C173.125,56.068 173.488,53.333 174.212,50.176C174.937,47.018 175.934,43.926 177.202,40.898C179.316,35.951 181.974,31.751 185.175,28.301C188.477,24.753 191.658,22.979 194.718,22.979C197.295,22.979 199.415,23.833 201.076,25.542C202.737,27.251 203.567,29.408 203.567,32.012C203.567,33.932 203.154,35.967 202.329,38.115C203.416,38.115 204.101,38.302 204.382,38.677C204.664,39.051 204.805,39.922 204.805,41.289C204.805,41.159 204.755,41.826 204.654,43.291C204.533,46.514 204.473,49.525 204.473,52.324C204.473,53.789 204.483,54.896 204.503,55.645C204.523,56.393 204.564,57.256 204.624,58.232C204.684,59.209 204.745,59.99 204.805,60.576C204.966,62.106 205.228,63.62 205.591,65.117C204.382,67.038 203.225,68.446 202.117,69.341C201.01,70.236 199.883,70.684 198.735,70.684C195.634,70.684 194.084,66.484 194.084,58.086C194.084,57.109 194.104,56.344 194.145,55.791Z" style="fill-rule:nonzero;"/>
        <path d="M223.892,33.477C224.697,29.798 225.372,25.949 225.915,21.929C226.459,17.909 226.731,14.824 226.731,12.676C226.731,12.09 226.63,11.797 226.429,11.797C226.107,11.797 225.543,12.961 224.737,15.288C223.932,17.616 223.258,19.984 222.714,22.393C221.546,27.699 220.645,32.101 220.011,35.601C219.377,39.1 218.939,42.038 218.697,44.414C218.456,46.79 218.335,49.215 218.335,51.689C218.335,53.805 218.481,55.352 218.773,56.328C219.065,57.305 219.533,57.793 220.177,57.793C221.285,57.793 222.523,57.004 223.892,55.425C225.261,53.846 226.499,51.771 227.607,49.199C228.472,47.279 229.147,46.318 229.63,46.318C230.254,46.318 230.566,47.116 230.566,48.711C230.566,52.194 229.892,55.596 228.543,58.916C227.194,62.236 225.457,64.93 223.333,66.997C221.209,69.064 219.04,70.098 216.825,70.098C214.107,70.098 211.892,68.714 210.181,65.947C208.47,63.18 207.614,59.567 207.614,55.107C207.614,51.462 208.097,47.189 209.064,42.29C210.03,37.391 211.324,32.459 212.944,27.495C214.565,22.531 216.342,18.031 218.275,13.994C220.207,9.958 222.12,6.865 224.013,4.717C225.18,3.317 226.479,2.617 227.909,2.617C228.996,2.617 229.982,3.162 230.868,4.253C231.754,5.343 232.439,6.865 232.922,8.818C233.405,10.771 233.647,12.936 233.647,15.313C233.647,20.423 233.027,25.42 231.789,30.303C230.551,35.186 228.825,39.417 226.61,42.998C225.563,44.723 224.556,46.074 223.59,47.051C222.623,48.027 221.778,48.516 221.053,48.516C220.348,48.516 219.996,48.076 219.996,47.197C219.996,46.709 220.258,45.781 220.781,44.414C221.486,42.624 222.311,39.922 223.258,36.309C223.338,35.951 223.429,35.568 223.529,35.161C223.63,34.754 223.751,34.193 223.892,33.477Z" style="fill-rule:nonzero;"/>
        <path d="M274.9,34.6C275.685,31.344 276.355,27.69 276.908,23.638C277.462,19.585 277.739,16.24 277.739,13.604C277.739,11.878 277.487,11.016 276.984,11.016C276.521,11.016 275.675,12.008 274.447,13.994C272.615,17.184 270.984,20.854 269.555,25.005C268.125,29.155 267.028,33.395 266.263,37.725C265.498,42.054 265.115,46.286 265.115,50.42C265.115,53.675 265.332,55.905 265.765,57.109C266.197,58.314 267.018,58.916 268.226,58.916C269.273,58.916 270.571,58.444 272.122,57.5C275.625,55.254 279.329,52.048 283.235,47.881C284.967,46.09 286.064,45.195 286.527,45.195C287.192,45.195 287.524,45.732 287.524,46.807L287.524,46.904C287.423,48.369 287.111,50.029 286.588,51.885C285.541,55.465 284.635,57.809 283.87,58.916C282.581,60.771 280.814,62.594 278.569,64.385C276.325,66.175 274.024,67.64 271.669,68.779C269.313,69.919 267.34,70.488 265.749,70.488C263.917,70.488 262.186,69.927 260.555,68.804C258.924,67.681 257.505,66.143 256.297,64.189C255.089,62.236 254.142,59.958 253.458,57.354C252.773,54.749 252.431,51.966 252.431,49.004C252.431,46.758 252.653,44.325 253.096,41.704C253.538,39.084 254.183,36.341 255.028,33.477C255.874,30.612 256.83,27.926 257.897,25.42C258.522,23.923 259.171,22.49 259.845,21.123C260.52,19.756 261.265,18.421 262.08,17.119C262.896,15.817 263.786,14.564 264.753,13.359C265.719,12.155 266.605,11.13 267.41,10.283C268.82,8.753 270.279,7.419 271.789,6.279C273.3,5.14 274.699,4.294 275.987,3.74C277.276,3.187 278.454,2.91 279.521,2.91C282.158,2.91 284.222,4.017 285.712,6.23C287.202,8.444 287.947,11.504 287.947,15.41C287.947,19.512 287.322,23.8 286.074,28.276C284.826,32.752 283.165,36.667 281.091,40.02C279.662,42.396 278.242,44.268 276.833,45.635C275.424,47.002 274.155,47.686 273.028,47.686C272.041,47.686 271.548,46.921 271.548,45.391C271.548,44.674 271.82,43.682 272.363,42.412C273.128,40.654 273.974,38.05 274.9,34.6Z" style="fill-rule:nonzero;"/>
        <path d="M306.701,33.477C307.506,29.798 308.181,25.949 308.724,21.929C309.268,17.909 309.54,14.824 309.54,12.676C309.54,12.09 309.439,11.797 309.238,11.797C308.916,11.797 308.352,12.961 307.547,15.288C306.741,17.616 306.067,19.984 305.523,22.393C304.355,27.699 303.454,32.101 302.82,35.601C302.186,39.1 301.748,42.038 301.507,44.414C301.265,46.79 301.144,49.215 301.144,51.689C301.144,53.805 301.29,55.352 301.582,56.328C301.874,57.305 302.342,57.793 302.986,57.793C304.094,57.793 305.332,57.004 306.701,55.425C308.07,53.846 309.308,51.771 310.416,49.199C311.281,47.279 311.956,46.318 312.439,46.318C313.063,46.318 313.375,47.116 313.375,48.711C313.375,52.194 312.701,55.596 311.352,58.916C310.003,62.236 308.266,64.93 306.142,66.997C304.018,69.064 301.849,70.098 299.634,70.098C296.916,70.098 294.701,68.714 292.99,65.947C291.279,63.18 290.423,59.567 290.423,55.107C290.423,51.462 290.906,47.189 291.873,42.29C292.839,37.391 294.133,32.459 295.753,27.495C297.374,22.531 299.151,18.031 301.084,13.994C303.017,9.958 304.929,6.865 306.822,4.717C307.99,3.317 309.288,2.617 310.718,2.617C311.805,2.617 312.791,3.162 313.677,4.253C314.563,5.343 315.248,6.865 315.731,8.818C316.214,10.771 316.456,12.936 316.456,15.313C316.456,20.423 315.837,25.42 314.598,30.303C313.36,35.186 311.634,39.417 309.419,42.998C308.372,44.723 307.365,46.074 306.399,47.051C305.433,48.027 304.587,48.516 303.862,48.516C303.158,48.516 302.805,48.076 302.805,47.197C302.805,46.709 303.067,45.781 303.59,44.414C304.295,42.624 305.121,39.922 306.067,36.309C306.147,35.951 306.238,35.568 306.339,35.161C306.439,34.754 306.56,34.193 306.701,33.477Z" style="fill-rule:nonzero;"/>
        <path d="M338.864,20.879C341.864,20.879 343.364,21.449 343.364,22.588C343.364,23.89 342.69,24.59 341.341,24.688C339.71,24.85 338.19,25.599 336.78,26.934C335.371,28.268 334.118,30.091 333.021,32.402C331.923,34.714 331.068,37.318 330.454,40.215C329.839,43.112 329.532,46.172 329.532,49.395C329.532,52.943 330.046,55.799 331.073,57.964C332.099,60.129 333.438,61.211 335.089,61.211C336.619,61.211 337.958,59.941 339.106,57.402C340.254,54.863 340.827,51.901 340.827,48.516C340.827,45.749 340.47,43.153 339.755,40.728C339.04,38.302 337.999,36.26 336.629,34.6C336.046,33.851 335.754,33.314 335.754,32.988C335.754,32.533 336.166,31.833 336.992,30.889C337.918,29.88 338.955,29.033 340.103,28.35C341.25,27.666 342.217,27.324 343.002,27.324C343.908,27.324 344.768,27.707 345.584,28.472C346.399,29.237 347.119,30.327 347.743,31.743C348.367,33.159 348.845,34.787 349.178,36.626C349.51,38.465 349.676,40.426 349.676,42.51C349.676,45.96 349.273,49.37 348.468,52.739C347.663,56.108 346.606,58.835 345.297,60.918C343.606,63.555 341.567,65.711 339.181,67.388C336.796,69.064 334.526,69.902 332.371,69.902C330.277,69.902 328.199,69.316 326.135,68.145C324.071,66.973 322.435,65.426 321.227,63.506C319.617,60.902 318.811,57.207 318.811,52.422C318.811,48.646 319.385,44.87 320.533,41.094C321.68,37.318 323.236,33.892 325.199,30.815C327.162,27.739 329.326,25.314 331.692,23.54C334.057,21.766 336.448,20.879 338.864,20.879Z" style="fill-rule:nonzero;"/>
        <path d="M357.981,22.783L358.102,22.197C359.432,16.143 360.581,11.878 361.549,9.404C362.013,8.232 362.658,7.191 363.484,6.279C365.036,4.684 366.498,3.887 367.868,3.887C368.675,3.887 369.289,4.18 369.713,4.767C370.136,5.353 370.348,6.201 370.348,7.309C370.348,8.059 370.044,9.587 369.436,11.895C368.403,15.735 367.633,19.331 367.127,22.683C367.469,22.748 367.802,22.846 368.125,22.976C369.334,23.269 370.13,23.603 370.513,23.978C370.896,24.352 371.088,25.028 371.088,26.004C371.088,27.73 370.816,29.326 370.273,30.791C369.73,32.256 369.015,33.331 368.13,34.015C367.466,34.503 366.39,34.829 364.901,34.992C364.642,36.262 364.354,38.004 364.035,40.219C363.856,42.174 363.657,44.877 363.438,48.329C363.317,49.597 363.256,50.785 363.256,51.891C363.256,57.03 364.797,59.6 367.877,59.6L368.149,59.6C368.512,59.6 368.693,59.697 368.693,59.893C368.693,60.413 368.35,61.292 367.666,62.529C366.981,63.766 366.226,64.857 365.401,65.801C364.515,66.777 363.548,67.559 362.499,68.145C361.451,68.73 360.503,69.023 359.656,69.023C357.538,69.023 355.818,67.868 354.497,65.557C353.175,63.245 352.515,60.186 352.515,56.377C352.515,54.749 352.691,52.617 353.043,49.98C353.396,47.344 353.944,43.812 354.689,39.385C354.81,38.604 354.941,37.782 355.082,36.919C355.223,36.056 355.303,35.544 355.323,35.381C354.518,35.348 353.944,35.072 353.602,34.551C353.26,34.03 353.089,33.184 353.089,32.012C353.089,29.961 353.577,28.024 354.553,26.201C355.53,24.378 356.672,23.239 357.981,22.783Z" style="fill-rule:nonzero;"/>
        <path d="M393.859,10.479L393.859,9.697C393.859,8.493 393.758,7.891 393.557,7.891C393.295,7.891 392.888,8.542 392.334,9.844C391.78,11.146 391.282,12.594 390.839,14.189C389.732,18.258 388.755,22.563 387.91,27.104C387.064,31.646 386.41,36.178 385.947,40.703C385.785,42.461 385.614,44.365 385.433,46.416L385.584,46.611C387.597,43.258 389.097,40.882 390.084,39.482C391.07,38.083 392.349,36.488 393.919,34.697C395.892,32.484 397.523,31.377 398.812,31.377C399.637,31.377 400.277,31.857 400.73,32.817C401.183,33.778 401.409,35.104 401.409,36.797C401.409,37.773 401.288,39.173 401.047,40.996C400.624,44.837 400.412,48.076 400.412,50.713C400.412,51.917 400.473,53.187 400.594,54.521C400.694,55.563 401.027,57.663 401.59,60.82C402.053,63.229 402.285,64.564 402.285,64.824C402.285,65.28 401.953,65.833 401.288,66.484C399.154,68.763 397.191,69.902 395.399,69.902C393.929,69.902 392.737,68.745 391.82,66.432C390.904,64.118 390.446,61.104 390.446,57.389C390.446,55.922 390.537,54.146 390.718,52.06L390.567,51.865C387.709,56.629 385.797,59.843 384.831,61.507C381.246,67.104 378.488,69.902 376.555,69.902C375.669,69.902 374.939,68.95 374.365,67.046C373.791,65.142 373.504,62.66 373.504,59.6C373.504,53.024 374.762,44.626 377.279,34.404C378.286,30.433 379.353,26.632 380.48,23.003C381.608,19.373 382.685,16.24 383.712,13.604C384.457,11.748 385.237,10.129 386.052,8.745C386.868,7.362 387.693,6.206 388.529,5.278C389.364,4.351 390.215,3.659 391.081,3.203C391.946,2.747 392.812,2.52 393.678,2.52C395.832,2.52 397.589,3.594 398.948,5.742C400.307,7.891 400.986,10.641 400.986,13.994C400.986,16.338 400.574,18.828 399.748,21.465C398.923,24.102 397.765,26.608 396.275,28.984C395.329,30.482 394.257,31.808 393.059,32.964C391.861,34.119 390.93,34.697 390.265,34.697C390.064,34.697 389.883,34.583 389.722,34.355C389.56,34.128 389.48,33.835 389.48,33.477C389.48,32.988 389.742,31.93 390.265,30.303C390.869,28.512 391.463,26.323 392.047,23.735C392.631,21.147 393.079,18.69 393.391,16.362C393.703,14.035 393.859,12.074 393.859,10.479Z" style="fill-rule:nonzero;"/>
        <path d="M408.893,70.488C407.988,70.391 407.163,69.723 406.419,68.486C405.675,67.184 405.148,65.776 404.836,64.263C404.524,62.749 404.369,60.788 404.369,58.379C404.369,53.008 404.988,46.945 406.226,40.19C407.464,33.436 408.868,28.545 410.438,25.518C411.062,24.248 411.928,23.613 413.035,23.613C414.202,23.613 415.143,24.476 415.858,26.201C416.572,27.926 416.93,30.188 416.93,32.988C416.93,37.121 416.561,41.963 415.825,47.512C415.089,53.062 414.055,58.831 412.723,64.82C412.2,67.231 411.557,68.859 410.793,69.706C410.27,70.228 409.657,70.488 408.953,70.488L408.893,70.488ZM412.523,21.416C410.63,21.318 409.684,19.479 409.684,15.898C409.684,14.108 409.961,12.033 410.514,9.673C411.068,7.313 411.697,5.563 412.402,4.424C412.764,3.805 413.132,3.366 413.504,3.105C413.877,2.845 414.355,2.715 414.939,2.715C415.945,2.715 416.685,3.114 417.158,3.911C417.632,4.709 417.868,6.035 417.868,7.891C417.868,10.202 417.622,12.391 417.128,14.458C416.635,16.525 415.976,18.201 415.15,19.487C414.325,20.773 413.479,21.416 412.613,21.416L412.523,21.416Z" style="fill-rule:nonzero;"/>
        <path d="M432.867,44.255L434.687,40.827C436.528,37.531 437.986,35.075 439.062,33.461C440.138,31.846 441.104,30.68 441.959,29.963C442.814,29.245 443.684,28.887 444.569,28.887C445.997,28.887 447.003,29.505 447.586,30.742C448.169,31.979 448.461,34.128 448.461,37.188C448.461,38.457 448.381,40.329 448.219,42.803C447.978,46.09 447.857,49.183 447.857,52.08C447.857,55.335 447.958,57.972 448.159,59.99C448.3,61.227 448.511,62.464 448.793,63.701C448.995,64.873 449.095,65.671 449.095,66.094C449.095,66.615 448.974,67.021 448.733,67.314C448.109,68.193 447.283,68.958 446.256,69.609C445.23,70.26 444.364,70.586 443.659,70.586C442.512,70.586 441.47,69.951 440.533,68.682C439.597,67.412 438.872,65.654 438.359,63.408C437.846,61.162 437.589,58.623 437.589,55.791C437.589,53.903 437.71,51.673 437.951,49.102L437.831,48.906C436.965,50.469 436.265,51.706 435.732,52.617C435.198,53.529 434.7,54.391 434.237,55.205C431.982,59.372 430.069,63.132 428.499,66.484C427.895,67.786 427.341,68.926 426.838,69.902C426.093,71.107 425.247,71.709 424.301,71.709C423.012,71.709 421.965,70.928 421.16,69.365C420.355,67.803 419.952,65.785 419.952,63.311C419.952,61.781 420.063,59.909 420.284,57.695C420.506,55.482 420.803,53.114 421.175,50.591C421.548,48.068 421.991,45.472 422.504,42.803C423.017,40.133 423.576,37.594 424.18,35.186C425.106,31.182 426.234,28.057 427.563,25.811C428.469,24.346 429.566,23.613 430.855,23.613C432.949,23.613 433.996,25.811 433.996,30.205C433.996,33.428 433.579,38.046 432.746,44.059L432.867,44.255Z" style="fill-rule:nonzero;"/>
        <path d="M473.135,46.221L473.135,46.416L473.014,46.221C472.893,46.286 472.732,46.318 472.531,46.318C472.148,46.383 471.665,46.416 471.081,46.416C470.054,46.416 469.541,46.107 469.541,45.488C469.541,45.163 469.672,44.772 469.933,44.316C470.699,42.917 471.358,41.077 471.912,38.799C472.465,36.52 472.772,34.453 472.833,32.598C472.833,32.142 472.853,31.735 472.893,31.377C472.913,31.247 472.928,31.133 472.938,31.035C472.948,30.938 472.953,30.856 472.953,30.791C472.953,30.335 472.762,30.107 472.38,30.107C471.594,30.107 470.386,31.475 468.756,34.209C467.729,35.967 466.762,38.05 465.856,40.459C464.95,42.868 464.246,45.277 463.742,47.686C463.239,50.094 462.987,52.259 462.987,54.18C462.987,56.068 463.279,57.012 463.863,57.012C464.427,57.012 465.846,55.482 468.121,52.422C469.148,50.99 470.819,48.923 473.135,46.221ZM471.594,56.621L470.779,57.598C470.719,57.695 470.623,57.826 470.492,57.988C470.361,58.151 470.195,58.363 469.994,58.623C466.511,63.018 463.778,66.11 461.794,67.9C459.811,69.691 458.085,70.586 456.615,70.586C454.984,70.586 453.671,69.626 452.674,67.705C451.677,65.785 451.179,63.213 451.179,59.99C451.179,55.986 451.879,51.844 453.278,47.563C454.677,43.283 456.525,39.352 458.82,35.771C461.115,32.191 463.632,29.318 466.37,27.153C469.108,24.989 471.756,23.906 474.312,23.906C476.829,23.906 478.747,24.606 480.066,26.006C481.384,27.406 482.044,29.505 482.044,32.305C482.044,34.648 481.47,37.546 480.322,40.996C481.148,41.094 481.752,41.509 482.134,42.241C482.517,42.974 482.708,44.121 482.708,45.684C482.708,48.223 482.386,51.763 481.742,56.304C481.097,60.845 480.312,65.036 479.386,68.877C478.259,73.727 476.648,77.943 474.554,81.523C472.964,84.225 470.99,86.545 468.635,88.481C466.279,90.418 464.256,91.387 462.565,91.387C461.155,91.387 459.897,90.475 458.79,88.652C457.682,86.829 457.129,84.779 457.129,82.5C457.129,80.97 457.37,79.383 457.853,77.739C458.337,76.095 458.961,74.687 459.726,73.516C461.296,70.944 463.601,68.503 466.642,66.191C467.205,65.736 467.638,65.508 467.94,65.508C468.061,65.508 468.172,65.589 468.272,65.752C468.373,65.915 468.423,66.094 468.423,66.289C468.423,66.517 468.303,66.956 468.061,67.607C467.457,69.268 466.924,71.392 466.46,73.979C465.997,76.567 465.766,78.805 465.766,80.693C465.766,82.907 465.977,84.014 466.4,84.014C466.621,84.014 466.898,83.615 467.231,82.817C467.563,82.02 467.86,81.117 468.122,80.107C469.834,73.076 470.928,66.565 471.407,60.574C471.469,59.695 471.532,58.378 471.594,56.621Z" style="fill-rule:nonzero;"/>
    </g>
</svg>
